<svg fill="none" xmlns="http://www.w3.org/2000/svg" viewBox="0 0 636 136"><path d="M322 23.5a7.5 7.5 0 1 1-15 0 7.5 7.5 0 0 1 15 0Z" fill="#E9FFEF"/><path d="M52 38h-4a1 1 0 0 1-1-1V24a3 3 0 1 1 6 0v13a1 1 0 0 1-1 1ZM42 67h-4a1 1 0 0 1-1-1v-4a3 3 0 1 1 6 0v4a1 1 0 0 1-1 1ZM32 82h-4a1 1 0 0 1-1-1v-4a3 3 0 1 1 6 0v4a1 1 0 0 1-1 1Zm10 15h-4a1 1 0 0 1-1-1v-4a3 3 0 1 1 6 0v4a1 1 0 0 1-1 1Zm-10 15h-4a1 1 0 0 1-1-1v-4a3 3 0 1 1 6 0v4a1 1 0 0 1-1 1Zm26-.01h-4a1 1 0 0 1-1-1v-6.404a1 1 0 0 1 1-1h4a1 1 0 0 1 1 1v6.404a1 1 0 0 1-1 1Zm30 0h-4a1 1 0 0 1-1-1v-6.404a1 1 0 0 1 1-1h4a1 1 0 0 1 1 1v6.404a1 1 0 0 1-1 1Zm46 13.656h-4a1 1 0 0 1-1-1v-6.404a1 1 0 0 1 1-1h4a1 1 0 0 1 1 1v6.404a1 1 0 0 1-1 1ZM198 55a2 2 0 0 1 2-2h3a2 2 0 0 1 2 2v28a2 2 0 0 1-2 2h-3a2 2 0 0 1-2-2V55Zm18 36a2 2 0 0 1 2-2h3a2 2 0 0 1 2 2v13a2 2 0 0 1-2 2h-3a2 2 0 0 1-2-2V91Zm15-27a2 2 0 0 1 2-2h3a2 2 0 0 1 2 2v19a2 2 0 0 1-2 2h-3a2 2 0 0 1-2-2V64Zm18 49a2 2 0 0 1 2-2h3a2 2 0 0 1 2 2v13a2 2 0 0 1-2 2h-3a2 2 0 0 1-2-2v-13Zm59-45h-6V56a3 3 0 1 1 6 0v12Zm65 0h-6V56a3 3 0 1 1 6 0v12Zm-28 0h-6V56a3 3 0 1 1 6 0v12Zm-51 23h-6V79a3 3 0 1 1 6 0v12Zm65 0h-6V79a3 3 0 1 1 6 0v12Zm-15 37h-4a1 1 0 0 1-1-1v-26a1 1 0 0 1 1-1h4a1 1 0 0 1 1 1v26a1 1 0 0 1-1 1Zm42 0h-4a1 1 0 0 1-1-1v-26a1 1 0 0 1 1-1h4a1 1 0 0 1 1 1v26a1 1 0 0 1-1 1Z" fill="#FFF0D0"/><circle cx="441" cy="104" r="6" fill="#FFF0D0"/><path d="M560.5 116.5h3a1 1 0 0 1 1 1v7a1 1 0 0 1-1 1h-6a1 1 0 0 1-1-1v-7a1 1 0 0 1 1-1h3Z" fill="#FFF4FF"/><path d="M570.5 60.5h6.5a1 1 0 0 1 1 1v7a1 1 0 0 1-1 1h-13a1 1 0 0 1-1-1v-7a1 1 0 0 1 1-1h6.5Zm35 14h6.5a1 1 0 0 1 1 1v7a1 1 0 0 1-1 1h-13a1 1 0 0 1-1-1v-7a1 1 0 0 1 1-1h6.5Z" fill="#FFF0D0"/><path d="M479.713 18.591c2.918 7.173-2.026 13.27-5.268 15.422h-9.322c-3.242-2.51-8.105-8.249-5.268-15.422 1.574-3.98 5.157-6.196 8.916-6.543a11.368 11.368 0 0 1 2.092 0c3.679.34 7.201 2.489 8.85 6.543Z" fill="#FFF1E8"/><path d="M517 113c0 6.627-5.373 12-12 12s-12-5.373-12-12 5.373-12 12-12 12 5.373 12 12Zm-327.81 12.523c-10.897-3.224-5.043-15.481-.313-21.852a.653.653 0 0 1 1.041-.016c4.897 6.207 10.956 18.261-.334 21.864a.695.695 0 0 1-.394.004ZM35.775 133c.681-1.875 1.199-6.56-3.069-8.694-1.756-.878-3.386-.939-4.77-.588-.455-1.679-2.287-4.73-5.969-5.548-3.616-.804-6.541 1.45-7.614 2.5a.096.096 0 0 1-.124.01c-.569-.403-2.06-1.643-4.024-.465-1.915 1.149-1.738 3.135-1.568 3.943a.104.104 0 0 1-.116.125c-1.137-.163-3.913-.275-5.475 2.069-1.637 2.455-.341 5.455.511 6.648h32.218Z" fill="#E9FFEF"/><path d="m12.813 103.657-.812 3.341a1.968 1.968 0 0 1-3.824 0l-.813-3.341c-.934 0-1.63-.894-1.246-1.745.642-1.419 1.818-2.99 3.97-2.99 2.214 0 3.347 1.66 3.931 3.109.326.809-.334 1.626-1.206 1.626Zm262 0-.812 3.341a1.969 1.969 0 0 1-3.824 0l-.813-3.341c-.934 0-1.631-.894-1.246-1.745.642-1.419 1.818-2.99 3.971-2.99 2.213 0 3.346 1.66 3.93 3.109.326.809-.334 1.626-1.206 1.626Z" fill="#FFF0D0"/><path d="M298.775 133c.681-1.875 1.199-6.56-3.069-8.694-1.756-.878-3.386-.939-4.769-.588-.456-1.679-2.288-4.73-5.97-5.548-3.616-.804-6.541 1.45-7.614 2.5a.096.096 0 0 1-.124.01c-.569-.403-2.061-1.643-4.024-.465-1.915 1.149-1.738 3.135-1.568 3.943a.104.104 0 0 1-.116.125c-1.137-.163-3.913-.275-5.475 2.069-1.637 2.455-.341 5.455.511 6.648h32.218Z" fill="#E9FFEF"/><path fill-rule="evenodd" clip-rule="evenodd" d="M468.679 11.053a12.36 12.36 0 0 1 2.276 0c4.009.37 7.879 2.724 9.684 7.161 1.584 3.893 1.027 7.506-.347 10.4-1.282 2.702-3.287 4.81-4.986 6.02l-.997 3.44A2.502 2.502 0 0 1 476.2 40.5v.2a2.301 2.301 0 0 1-1.566 2.18l-.608 1.591a3.002 3.002 0 0 1-2.803 1.929h-2.447a3 3 0 0 1-2.802-1.929l-.608-1.59A2.3 2.3 0 0 1 463.8 40.7v-.2c0-1.135.757-2.094 1.793-2.399l-1.308-3.475c-3.34-2.677-8.388-8.747-5.36-16.403 1.73-4.375 5.67-6.794 9.754-7.17ZM473.023 40h-6a.882.882 0 0 1-.046 0h-.677a.5.5 0 0 0-.5.5v.2a.3.3 0 0 0 .3.3h7.8a.3.3 0 0 0 .3-.3v-.2a.5.5 0 0 0-.5-.5h-.677Zm.091-4.987L472.248 38h-4.556l-1.124-2.987h6.546Zm-7.643-2h.527c-3.188-4.765-3.759-9.205-3.021-12.919.495-2.488 1.569-4.612 2.779-6.261-2.165.938-3.996 2.66-4.971 5.126-2.506 6.336 1.561 11.527 4.686 14.054ZM469 13.176c-1.591 1.468-3.409 4.03-4.061 7.308-.681 3.424-.11 7.73 3.513 12.53H469V13.175Zm2 .243c1.602 1.352 3.429 3.636 4.159 6.648.809 3.336.311 7.722-3.639 12.946H471V13.42Zm3.41.68c1.144 1.463 2.162 3.31 2.693 5.497.901 3.718.36 8.282-3.123 13.417h.154c1.444-1.026 3.223-2.88 4.351-5.257 1.18-2.485 1.636-5.508.302-8.788-.93-2.285-2.51-3.9-4.377-4.869ZM472.447 43h-4.894l.289.757a1 1 0 0 0 .934.643h2.447a1 1 0 0 0 .934-.643l.29-.757Zm-335.245 9.445c.968-.837 2.332-1.445 3.976-1.445 1.739 0 3.124.857 4.058 1.869.696.754 1.209 1.669 1.435 2.514 1.627.36 3.329 1.721 3.329 4.117 0 1.287-.666 2.205-1.524 2.76-.821.53-1.822.74-2.676.74h-9.6c-.807 0-1.823-.388-2.63-1.043-.838-.68-1.57-1.747-1.57-3.171 0-1.396.704-2.456 1.577-3.143a5.158 5.158 0 0 1 2.119-.98c.244-.81.788-1.598 1.506-2.218Zm1.308 1.512c-.655.567-.933 1.2-.953 1.57a1.107 1.107 0 0 1-1.066 1.046c-.497.017-1.157.232-1.677.641-.5.393-.814.915-.814 1.572 0 .676.335 1.216.83 1.618.526.427 1.11.596 1.37.596h9.6c.568 0 1.167-.147 1.591-.42.386-.25.609-.581.609-1.08 0-1.423-1.127-2.178-2.135-2.213a1.106 1.106 0 0 1-1.066-1.047c-.024-.436-.347-1.272-1.033-2.015-.662-.717-1.547-1.225-2.588-1.225-1.135 0-2.041.415-2.668.957Zm96.692-42.512c.968-.837 2.332-1.445 3.976-1.445 1.739 0 3.124.856 4.058 1.869.696.754 1.209 1.669 1.435 2.514 1.627.36 3.329 1.721 3.329 4.117 0 1.287-.666 2.205-1.524 2.76-.821.53-1.822.74-2.676.74h-9.6c-.807 0-1.823-.388-2.63-1.043-.838-.68-1.57-1.747-1.57-3.171 0-1.396.704-2.456 1.577-3.143a5.158 5.158 0 0 1 2.119-.98c.244-.81.788-1.598 1.506-2.218Zm1.308 1.512c-.655.567-.933 1.2-.953 1.57a1.107 1.107 0 0 1-1.066 1.046c-.497.017-1.157.232-1.677.641-.5.393-.814.915-.814 1.572 0 .676.335 1.216.83 1.618.526.427 1.11.596 1.37.596h9.6c.568 0 1.167-.147 1.591-.42.386-.25.609-.581.609-1.08 0-1.423-1.127-2.178-2.135-2.213a1.106 1.106 0 0 1-1.066-1.047c-.024-.436-.347-1.272-1.033-2.015-.662-.717-1.547-1.225-2.588-1.225-1.135 0-2.041.415-2.668.958Zm332.692-4.512C570.17 7.608 571.534 7 573.178 7c1.739 0 3.124.857 4.058 1.869.696.755 1.209 1.669 1.435 2.514 1.627.36 3.329 1.721 3.329 4.117 0 1.287-.666 2.205-1.524 2.76-.821.53-1.822.74-2.676.74h-9.6c-.807 0-1.823-.388-2.63-1.043-.838-.68-1.57-1.747-1.57-3.171 0-1.396.704-2.456 1.577-3.143a5.158 5.158 0 0 1 2.119-.98c.244-.81.788-1.598 1.506-2.218Zm1.308 1.512c-.655.567-.933 1.2-.953 1.57a1.107 1.107 0 0 1-1.066 1.046c-.497.017-1.157.232-1.677.641-.5.394-.814.915-.814 1.572 0 .676.335 1.216.83 1.618.526.427 1.11.596 1.37.596h9.6c.568 0 1.167-.147 1.591-.42.386-.25.609-.581.609-1.08 0-1.423-1.127-2.178-2.135-2.213a1.106 1.106 0 0 1-1.066-1.047c-.024-.436-.347-1.272-1.033-2.015-.662-.717-1.547-1.225-2.588-1.225-1.135 0-2.041.415-2.668.957Z" fill="#CDCCD1"/><path d="M526.45 117.951c.219.498-.017 1.09-.527 1.322l-2.881 1.314c-.51.233-1.101.018-1.32-.48-.219-.497.017-1.089.527-1.322l2.881-1.314c.511-.232 1.102-.018 1.32.48Zm-.475 4.412c.511-.233.747-.825.528-1.323-.219-.497-.81-.712-1.32-.479l-2.881 1.313c-.51.233-.746.825-.528 1.323.219.497.81.712 1.321.479l2.88-1.313ZM587.5 53.5a1 1 0 0 1 1 1V83a1 1 0 1 1-2 0V54.5a1 1 0 0 1 1-1Zm-35 .5a1 1 0 0 1 1 1v28.5a1 1 0 0 1-2 0V55a1 1 0 0 1 1-1ZM527 56.5a1 1 0 0 1 1-1h15a1 1 0 0 1 0 2h-15a1 1 0 0 1-1-1Z" fill="#CDCCD1"/><path fill-rule="evenodd" clip-rule="evenodd" d="M527 61.5a2 2 0 0 1 2-2h13a2 2 0 0 1 2 2v7a2 2 0 0 1-2 2h-13a2 2 0 0 1-2-2v-7Zm7.5 0H529v1h5.5v-1Zm2 0v1h5.5v-1h-5.5Zm5.5 3h-5.5v4h5.5v-4Zm-7.5 4v-4H529v4h5.5Zm-7.5 7a2 2 0 0 1 2-2h13a2 2 0 0 1 2 2v7a2 2 0 0 1-2 2h-13a2 2 0 0 1-2-2v-7Zm7.5 0H529v1h5.5v-1Zm2 0v1h5.5v-1h-5.5Zm5.5 3h-5.5v4h5.5v-4Zm-7.5 4v-4H529v4h5.5Zm27.5-21a2 2 0 0 1 2-2h13a2 2 0 0 1 2 2v7a2 2 0 0 1-2 2h-13a2 2 0 0 1-2-2v-7Zm7.5 0H564v1h5.5v-1Zm2 0v1h5.5v-1h-5.5Zm5.5 3h-5.5v4h5.5v-4Zm-7.5 4v-4H564v4h5.5Zm-7.5 7a2 2 0 0 1 2-2h13a2 2 0 0 1 2 2v7a2 2 0 0 1-2 2h-13a2 2 0 0 1-2-2v-7Zm7.5 0H564v1h5.5v-1Zm2 0v1h5.5v-1h-5.5Zm5.5 3h-5.5v4h5.5v-4Zm-7.5 4v-4H564v4h5.5Zm27.5-21a2 2 0 0 1 2-2h13a2 2 0 0 1 2 2v7a2 2 0 0 1-2 2h-13a2 2 0 0 1-2-2v-7Zm7.5 0H599v1h5.5v-1Zm2 0v1h5.5v-1h-5.5Zm5.5 3h-5.5v4h5.5v-4Zm-7.5 4v-4H599v4h5.5Zm-7.5 7a2 2 0 0 1 2-2h13a2 2 0 0 1 2 2v7a2 2 0 0 1-2 2h-13a2 2 0 0 1-2-2v-7Zm7.5 0H599v1h5.5v-1Zm2 0v1h5.5v-1h-5.5Zm5.5 3h-5.5v4h5.5v-4Zm-7.5 4v-4H599v4h5.5Z" fill="#CDCCD1"/><path d="M562 56.5a1 1 0 0 1 1-1h15a1 1 0 1 1 0 2h-15a1 1 0 0 1-1-1Zm35 0a1 1 0 0 1 1-1h15a1 1 0 1 1 0 2h-15a1 1 0 0 1-1-1Zm14.159 61.451c.219.498-.017 1.09-.528 1.322l-2.881 1.314c-.51.233-1.101.018-1.32-.48-.219-.497.018-1.089.528-1.322l2.881-1.314c.51-.232 1.101-.018 1.32.48Zm.053 3.089c.219.498-.018 1.09-.528 1.323l-2.881 1.313c-.51.233-1.101.018-1.32-.479-.219-.498.017-1.09.528-1.323l2.881-1.313c.51-.233 1.101-.018 1.32.479Zm-32.376-3.089c.219.498-.018 1.09-.528 1.322l-2.881 1.314c-.51.233-1.101.018-1.32-.48-.219-.497.017-1.089.528-1.322l2.881-1.314c.51-.232 1.101-.018 1.32.48Zm.053 3.089c.219.498-.017 1.09-.527 1.323l-2.881 1.313c-.51.233-1.102.018-1.32-.479-.219-.498.017-1.09.527-1.323l2.881-1.313c.511-.233 1.102-.018 1.32.479Z" fill="#CDCCD1"/><path fill-rule="evenodd" clip-rule="evenodd" d="M555.5 116.5a2 2 0 0 1 2-2h6a2 2 0 0 1 2 2v7a2 2 0 0 1-2 2h-6a2 2 0 0 1-2-2v-7Zm2 0v7h6v-7h-6Z" fill="#CDCCD1"/><path d="M540.359 119.184c.511-.233.747-.825.528-1.322-.219-.498-.81-.713-1.32-.48l-2.881 1.314c-.51.232-.747.824-.528 1.322.219.498.81.712 1.32.48l2.881-1.314Zm.053 3.089c.51-.232.747-.824.528-1.322-.219-.498-.81-.712-1.32-.48l-2.881 1.314c-.511.233-.747.825-.528 1.322.219.498.81.713 1.32.48l2.881-1.314Z" fill="#CDCCD1"/><path fill-rule="evenodd" clip-rule="evenodd" d="M541.5 34a2 2 0 0 0-2 2v6h-16.8a3 3 0 0 0-2.647 1.588L516.5 50.25v39l-6.759 12.723c.617.266 1.207.581 1.765.942l6.595-12.415h9.413l-5.687 14h-8.356c.607.606 1.15 1.276 1.618 2h5.799c-.427 1.892-2.041 3.446-4.175 3.879.188.844.287 1.721.287 2.621 0 1.195-.175 2.349-.5 3.439V132H511a1 1 0 0 1-1-1v-7.088c-.638.293-1.307.532-2 .71V131a3 3 0 0 0 3 3h120a3 3 0 0 0 3-3v-25.5a1 1 0 0 0-.176-.567L623 89.189V50.28l-3.055-6.548A3 3 0 0 0 617.226 42H545.5v-6a2 2 0 0 0-2-2h-2Zm-23 98v-20.085c1.61-.657 2.939-1.827 3.726-3.307a7.001 7.001 0 0 0 7.774 3.731V132h-11.5Zm25-90h-2v-6h2v6Zm-19.514 62.5 5.687-14h8.467l-4.375 14h-9.779Zm11.874 0 4.375-14h8.06l-2.625 14h-9.81Zm11.845 0 2.625-14h8.572l-1.313 14h-9.884Zm11.893 0 1.313-14h8.589v14h-9.902Zm11.902 0v-14h9.061l.875 14H571.5Zm11.939 0-.875-14h8.106l2.625 14h-9.856Zm11.891 0-2.625-14h7.44l4.485 14h-9.3Zm11.4 0-4.485-14h7.637l7 14H606.73Zm12.388 0-7-14h9.356l9.625 14h-11.981Zm1.882-53v37H518.5v-37H621Zm-.57-2H519.167l2.651-4.97a.999.999 0 0 1 .882-.53h94.526c.389 0 .742.225.906.577l2.298 4.923Zm-31.93 61a5.001 5.001 0 0 1-4.899-4h9.799a5.002 5.002 0 0 1-4.9 4Zm6-1.392a7.03 7.03 0 0 1-3.5 2.933V124.5h11v-12.161a6.998 6.998 0 0 1-7.5-3.231Zm9.5 2.456V132h11v-19.959a7.002 7.002 0 0 1-2.5.459 6.998 6.998 0 0 1-6-3.392 7.028 7.028 0 0 1-2.5 2.456Zm13-.564c0-.044-.003-.088-.008-.13a7.065 7.065 0 0 0 1.783-2.262c1.237 2.329 3.82 3.892 6.725 3.892 2.739 0 5.191-1.388 6.5-3.499V125h-15v-14Zm3.112-4.5c.505 2.237 2.669 4 5.388 4 2.72 0 4.884-1.763 5.389-4h-10.777Zm-7.612 4a5.001 5.001 0 0 1-4.899-4h9.799a5.002 5.002 0 0 1-4.9 4Zm-16.899-4a5.001 5.001 0 0 0 9.799 0h-9.799Zm-7.101 6c.168 0 .335-.006.5-.018V132h-3.5v-20.174a6.973 6.973 0 0 0 3 .674Zm-6-3.392c.283.469.619.902 1 1.29V132h-13v-22.892a6.998 6.998 0 0 0 6 3.392 6.996 6.996 0 0 0 6-3.392Zm-18 3.392a6.972 6.972 0 0 0 4-1.254V132h-17v-19.571a6.997 6.997 0 0 0 7-3.322 6.997 6.997 0 0 0 6 3.393Zm-16.9-6a5.002 5.002 0 0 0 9.8 0h-9.8Zm-7.1 6a6.973 6.973 0 0 0 4.5-1.638V132h-13v-20.436a7.036 7.036 0 0 0 2.5-2.456 6.998 6.998 0 0 0 6 3.392Zm-16.9-6a5.002 5.002 0 0 0 9.8 0h-9.8Zm16.9 4a5.002 5.002 0 0 1-4.9-4h9.8a5.002 5.002 0 0 1-4.9 4Zm6.5-.669a7.024 7.024 0 0 0 2.5 1.995V132H547v-22.169Zm17.5.669a5.001 5.001 0 0 1-4.899-4h9.799a5.002 5.002 0 0 1-4.9 4Zm7.101-4a5.001 5.001 0 0 0 9.799 0h-9.799ZM617 127h15v4a1 1 0 0 1-1 1h-14v-5Zm-15-.5v5.5h-11v-5.5h11Z" fill="#CDCCD1"/><path fill-rule="evenodd" clip-rule="evenodd" d="M504.036 124.962C497.859 124.471 493 119.303 493 113c0-6.627 5.373-12 12-12s12 5.373 12 12c0 6.278-4.822 11.431-10.964 11.956v7.833a1 1 0 1 1-2 0v-7.827Zm0-2.008v-4.034l-3.311-3.034a1 1 0 1 1 1.351-1.474l1.96 1.796V110.6a1 1 0 0 1 2 0v4.349l3.455-3.251a1 1 0 1 1 1.37 1.457l-4.825 4.54v5.252c5.036-.518 8.964-4.774 8.964-9.947 0-5.523-4.477-10-10-10s-10 4.477-10 10c0 5.198 3.965 9.469 9.036 9.954ZM435.083 105a5.99 5.99 0 0 1 0-2 6.001 6.001 0 0 1 11.834 2 6.001 6.001 0 0 1-11.834 0Zm5.917 3a4.002 4.002 0 0 1-3.874-3h7.748a4.002 4.002 0 0 1-3.874 3Zm-3.874-5h7.748a4.002 4.002 0 0 0-7.748 0ZM413 104a6.001 6.001 0 1 0 11.917-1A6.001 6.001 0 0 0 413 104Zm2.126 1a4.002 4.002 0 0 0 7.748 0h-7.748Zm7.748-2h-7.748a4.002 4.002 0 0 1 7.748 0Z" fill="#CDCCD1"/><path d="M420.039 120.15a1.028 1.028 0 1 1-2.057 0 1.028 1.028 0 0 1 2.057 0Zm64.972 1.028a1.028 1.028 0 1 0 0-2.057 1.028 1.028 0 0 0 0 2.057Z" fill="#CDCCD1"/><path fill-rule="evenodd" clip-rule="evenodd" d="M457 104a6.001 6.001 0 1 0 11.917-1A6.001 6.001 0 0 0 457 104Zm2.126 1a4.002 4.002 0 0 0 7.748 0h-7.748Zm7.748-2h-7.748a4.002 4.002 0 0 1 7.748 0Z" fill="#CDCCD1"/><path d="M463.011 121.178a1.028 1.028 0 1 0 0-2.057 1.028 1.028 0 0 0 0 2.057Zm-20.972-1.028a1.028 1.028 0 1 1-2.057 0 1.028 1.028 0 0 1 2.057 0Z" fill="#CDCCD1"/><path fill-rule="evenodd" clip-rule="evenodd" d="M424.853 80a2 2 0 0 0-2 2v1.961l-2.925-2.264a2 2 0 0 0-2.492.034l-9.338 7.653a3 3 0 0 0-1.098 2.32V131a3 3 0 0 0 3 3h84a3 3 0 0 0 3-3v-9.056a12.076 12.076 0 0 1-2-2.308V131a1 1 0 0 1-1 1h-3.876v-14.962a2 2 0 0 0-2-2h-6.225a2 2 0 0 0-2 2V132h-5.07c.111-.313.171-.649.171-1V93h15.5a1 1 0 0 0 0-2h-15.218l9.422-7.722 9.908 7.67c.245.19.388.481.388.79v14.626a12.076 12.076 0 0 1 2-2.308V91.739a3 3 0 0 0-1.164-2.373L494 87.945V82a2 2 0 0 0-2-2h-1.147a2 2 0 0 0-2 2v1.961l-2.925-2.264a2 2 0 0 0-2.492.034l-9.458 7.752a2.82 2.82 0 0 0-.142-.117L472 87.945V82a2 2 0 0 0-2-2h-1.147a2 2 0 0 0-2 2v1.961l-2.925-2.264a2 2 0 0 0-2.492.034l-9.458 7.752a2.82 2.82 0 0 0-.142-.117L450 87.945V82a2 2 0 0 0-2-2h-1.147a2 2 0 0 0-2 2v1.961l-2.925-2.264a2 2 0 0 0-2.492.034l-9.458 7.752a2.82 2.82 0 0 0-.142-.117L428 87.945V82a2 2 0 0 0-2-2h-1.147ZM431 93v38c0 .351-.06.687-.171 1h5.07v-14.963a2 2 0 0 1 2-2h6.225a2 2 0 0 1 2 2V132H450a1 1 0 0 0 1-1V91.739a.999.999 0 0 0-.388-.791l-9.908-7.67L431.282 91H446.5a1 1 0 0 1 0 2H431Zm-3 39a1 1 0 0 0 1-1V91.739a.999.999 0 0 0-.388-.791l-9.908-7.67-8.812 7.222H424.5a1 1 0 0 1 0 2H409V131a1 1 0 0 0 1 1h3.899v-14.963a2 2 0 0 1 2-2h6.225a2 2 0 0 1 2 2V132H428Zm-5.876 0v-14.963h-6.225V132h6.225ZM426 86.397l-1.147-.888V82H426v4.397ZM488.124 132h-6.225v-14.962h6.225V132Zm-34.842-41H468.5a1 1 0 0 1 0 2H453v38c0 .351-.06.687-.171 1h5.07v-14.962a2 2 0 0 1 2-2h6.225a2 2 0 0 1 2 2V132H472a1 1 0 0 0 1-1V91.739a.999.999 0 0 0-.388-.791l-9.908-7.67L453.282 91Zm12.842 41v-14.962h-6.225V132h6.225Zm-22-14.963V132h-6.225v-14.963h6.225ZM448 86.397l-1.147-.888V82H448v4.397Zm42.853-.888 1.147.888V82h-1.147v3.51ZM470 86.398l-1.147-.888V82H470v4.397Z" fill="#CDCCD1"/><path fill-rule="evenodd" clip-rule="evenodd" d="M479 104a6.001 6.001 0 1 0 11.917-1A6.001 6.001 0 0 0 479 104Zm2.126 1a4.002 4.002 0 0 0 7.748 0h-7.748Zm7.748-2h-7.748a4.002 4.002 0 0 1 7.748 0Z" fill="#CDCCD1"/><path d="M294.805 30.95c.219.499-.017 1.09-.528 1.323l-2.881 1.314c-.51.233-1.101.018-1.32-.48-.219-.497.018-1.09.528-1.322l2.881-1.314c.51-.232 1.101-.018 1.32.48Zm-.475 4.413c.51-.233.747-.825.528-1.323-.219-.497-.81-.712-1.32-.48l-2.881 1.314c-.511.233-.747.825-.528 1.323.219.497.81.712 1.32.48l2.881-1.314Z" fill="#CDCCD1"/><path fill-rule="evenodd" clip-rule="evenodd" d="M343 13a2 2 0 0 0-2 2v1h-1a2 2 0 0 0-2 2v9h-16.865a7.5 7.5 0 1 0-13.27 0H284a1 1 0 0 0 0 2h1v9.5h-6.25a3.25 3.25 0 1 0 0 6.5h.25v74.377a9.387 9.387 0 0 1 2-.965V45h129v42.5a1 1 0 0 0 2 0V45h.25a3.25 3.25 0 1 0 0-6.5H404V29h2a1 1 0 0 0 0-2h-19.5v-4.167h6.5a1 1 0 0 0 1-1c0-1.545-1.15-3.056-2.61-4.113a10.143 10.143 0 0 0-4.897-1.837 1 1 0 0 0-1.986 0c-1.9.188-3.603.9-4.897 1.837-1.46 1.057-2.61 2.568-2.61 4.113a1 1 0 0 0 1 1h6.5V27H360v-9a2 2 0 0 0-2-2h-1v-1a2 2 0 0 0-2-2h-12ZM309.338 28.94A.992.992 0 0 1 309 29h-22v9.5h23.844l-.504-2.015A2 2 0 0 1 312.281 34h1.27v-3.06a7.477 7.477 0 0 1-4.213-1.999Zm3.568 9.559h3.188l.625-2.5h-4.438l.625 2.5Zm5.25 0H338V29h-18a.992.992 0 0 1-.338-.059 7.478 7.478 0 0 1-4.111 1.986V34h1.168a2 2 0 0 1 1.941 2.485l-.504 2.015ZM360 29h24.5v1H381a1 1 0 0 0 0 2h3.5v6.5h-1.091v-2.59a2 2 0 0 0-2-2H378V33a1 1 0 0 0-2 0v5.5h-16V29Zm26.5 3v6.5h1.091v-2.59a2 2 0 0 1 2-2H393V33a1 1 0 0 1 2 0v5.5h7V29h-15.5v1h3.5a1 1 0 0 1 0 2h-3.5Zm6.5 6.5h-3.409v-2.59H393v2.59Zm-11.591-2.59v2.59H378v-2.59h3.409ZM358 27v-9h-3v9h3Zm-3 2h3v9.5h-3V29Zm-2-2v-9h-3v9h3Zm-3 2h3v9.5h-3V29Zm-2-2v-9h-3v9h3Zm-3 2h3v9.5h-3V29Zm-2-2v-9h-3v9h3Zm-3 2h3v9.5h-3V29Zm15-14v1h-12v-1h12Zm-76.25 25.5a1.25 1.25 0 0 0 0 2.5h133.5a1.25 1.25 0 0 0 0-2.5h-133.5Zm107.609-21.552c.259.56.454 1.23.557 1.885h-2.832a7.337 7.337 0 0 1 .557-1.885c.196-.427.406-.74.596-.93a.874.874 0 0 1 .21-.165.223.223 0 0 1 .052-.02h.002l.007.002a.223.223 0 0 1 .045.018.874.874 0 0 1 .21.165c.19.19.4.503.596.93Zm-4.295 1.885c.106-.86.341-1.745.668-2.514a7.89 7.89 0 0 0-1.949 1.02c-.69.5-1.161 1.024-1.444 1.494h2.725Zm6.872 0a9.554 9.554 0 0 0-.668-2.514 7.89 7.89 0 0 1 1.949 1.02c.69.5 1.161 1.024 1.444 1.494h-2.725ZM320 23.5a5.502 5.502 0 0 1-4.449 5.4v-2.29l2.656-2.657a1 1 0 1 0-1.414-1.414l-1.242 1.242V21a1 1 0 0 0-2 0v3.872l-1.16-1.062a.999.999 0 1 0-1.351 1.475l2.511 2.3v1.333A5.5 5.5 0 1 1 320 23.5Z" fill="#CDCCD1"/><path fill-rule="evenodd" clip-rule="evenodd" d="M295 123.994V101a2 2 0 0 0-2-2h-4a2 2 0 0 0-2 2v17.922c.79.424 1.453.956 2 1.526V115h4v8.535a6.932 6.932 0 0 1 2 .459ZM289 113v-12h4v12h-4Z" fill="#CDCCD1"/><path d="M320.769 113.474a1 1 0 1 0-2 0v4.737a1 1 0 0 0 2 0v-4.737Z" fill="#CDCCD1"/><path fill-rule="evenodd" clip-rule="evenodd" d="M299.052 132v2H411a1 1 0 0 0 0-2h-76v-1a3.001 3.001 0 0 0-2-2.829V127a3 3 0 0 0-3-3v-17a2 2 0 0 0-2-2h-10a2 2 0 0 0-2 2v17a3 3 0 0 0-3 3v1.171a3.001 3.001 0 0 0-2 2.829v1h-11.948ZM333 132v-1a1 1 0 0 0-1-1h-18a1 1 0 0 0-1 1v1h20Zm-5-8v-17h-10v17h10Zm-12 2a1 1 0 0 0-1 1v1h16v-1a1 1 0 0 0-1-1h-14Zm-15-70a4 4 0 0 1 8 0v11a1 1 0 0 1 0 2h-8a1 1 0 0 1 0-2V56Zm6 11v-5.5h-4V67h4Zm0-7.5V56a2 2 0 1 0-4 0v3.5h4ZM291 52a4 4 0 0 0-4 4v11a1 1 0 0 0 0 2h8a1 1 0 0 0 0-2V56a4 4 0 0 0-4-4Zm2 15h-4v-5.5h4V67Zm0-7.5h-4V56a2 2 0 1 1 4 0v3.5Zm59-3.5a4 4 0 0 1 8 0v11a1 1 0 0 1 0 2h-8a1 1 0 0 1 0-2V56Zm6 11v-5.5h-4V67h4Zm0-7.5V56a2 2 0 1 0-4 0v3.5h4Zm12-7.5a4 4 0 0 0-4 4v11a1 1 0 0 0 0 2h8a1 1 0 0 0 0-2V56a4 4 0 0 0-4-4Zm2 9.5V67h-4v-5.5h4Zm0-5.5v3.5h-4V56a2 2 0 1 1 4 0Zm8 0a4 4 0 0 1 8 0v11a1 1 0 0 1 0 2h-8a1 1 0 0 1 0-2V56Zm6 11v-5.5h-4V67h4Zm0-7.5V56a2 2 0 1 0-4 0v3.5h4Zm12-7.5a4 4 0 0 0-4 4v11a1 1 0 0 0 0 2h8a1 1 0 0 0 0-2V56a4 4 0 0 0-4-4Zm2 9.5V67h-4v-5.5h4Zm0-5.5v3.5h-4V56a2 2 0 1 1 4 0Zm-62 0a4 4 0 0 1 8 0v11a1 1 0 0 1 0 2h-8a1 1 0 0 1 0-2V56Zm2 11h4v-5.5h-4V67Zm0-7.5h4V56a2 2 0 1 0-4 0v3.5ZM305 75a4 4 0 0 0-4 4v11a1 1 0 0 0 0 2h8a1 1 0 0 0 0-2V79a4 4 0 0 0-4-4Zm2 9.5V90h-4v-5.5h4Zm0-5.5v3.5h-4V79a2 2 0 1 1 4 0Zm-20 0a4 4 0 0 1 8 0v11a1 1 0 0 1 0 2h-8a1 1 0 0 1 0-2V79Zm2 11h4v-5.5h-4V90Zm0-7.5h4V79a2 2 0 1 0-4 0v3.5Zm67-7.5a4 4 0 0 0-4 4v11a1 1 0 0 0 0 2h8a1 1 0 0 0 0-2V79a4 4 0 0 0-4-4Zm2 9.5V90h-4v-5.5h4Zm0-5.5v3.5h-4V79a2 2 0 1 1 4 0Zm8 0a4 4 0 0 1 8 0v11a1 1 0 0 1 0 2h-8a1 1 0 0 1 0-2V79Zm6 11v-5.5h-4V90h4Zm0-7.5V79a2 2 0 1 0-4 0v3.5h4Zm12-7.5a4 4 0 0 0-4 4v11a1 1 0 0 0 0 2h8a1 1 0 0 0 0-2V79a4 4 0 0 0-4-4Zm2 9.5V90h-4v-5.5h4Zm0-5.5v3.5h-4V79a2 2 0 1 1 4 0Zm8 0a4 4 0 0 1 8 0v11a1 1 0 0 1 0 2h-8a1 1 0 0 1 0-2V79Zm6 11v-5.5h-4V90h4Zm0-7.5V79a2 2 0 1 0-4 0v3.5h4ZM342 75a4 4 0 0 0-4 4v11a1 1 0 0 0 0 2h8a1 1 0 0 0 0-2V79a4 4 0 0 0-4-4Zm2 15h-4v-5.5h4V90Zm0-7.5h-4V79a2 2 0 1 1 4 0v3.5Z" fill="#CDCCD1"/><path fill-rule="evenodd" clip-rule="evenodd" d="M301 101a2 2 0 0 1 2-2h4a2 2 0 0 1 2 2v26a2 2 0 0 1-2 2h-4a2 2 0 0 1-2-2v-26Zm2 0v12h4v-12h-4Zm0 14v12h4v-12h-4Zm35-14a2 2 0 0 1 2-2h4a2 2 0 0 1 2 2v26a2 2 0 0 1-2 2h-4a2 2 0 0 1-2-2v-26Zm2 14v12h4v-12h-4Zm4-2v-12h-4v12h4Zm10-14a2 2 0 0 0-2 2v26a2 2 0 0 0 2 2h4a2 2 0 0 0 2-2v-26a2 2 0 0 0-2-2h-4Zm0 28v-12h4v12h-4Zm4-26v12h-4v-12h4Zm8 0a2 2 0 0 1 2-2h4a2 2 0 0 1 2 2v26a2 2 0 0 1-2 2h-4a2 2 0 0 1-2-2v-26Zm2 14v12h4v-12h-4Zm4-14h-4v12h4v-12Zm10-2a2 2 0 0 0-2 2v26a2 2 0 0 0 2 2h4a2 2 0 0 0 2-2v-26a2 2 0 0 0-2-2h-4Zm0 28v-12h4v12h-4Zm0-26h4v12h-4v-12Zm12 0a2 2 0 0 1 2-2h4a2 2 0 0 1 2 2v26a2 2 0 0 1-2 2h-4a2 2 0 0 1-2-2v-26Zm2 14v12h4v-12h-4Zm4-14h-4v12h4v-12Z" fill="#CDCCD1"/><path d="M319 54a1 1 0 0 0-2 0v45a1 1 0 0 0 2 0V54Zm4-1a1 1 0 0 1 1 1v45a1 1 0 0 1-2 0V54a1 1 0 0 1 1-1Zm6 1a1 1 0 0 0-2 0v45a1 1 0 0 0 2 0V54Z" fill="#CDCCD1"/><path fill-rule="evenodd" clip-rule="evenodd" d="M272.088 96a1 1 0 0 1 1 1v1.019c2.183.437 3.309 2.275 3.858 3.639.516 1.279-.245 2.438-1.31 2.845l-.664 2.731a2.965 2.965 0 0 1-1.884 2.093V120l-2 1v-11.673a2.966 2.966 0 0 1-1.883-2.093l-.664-2.727c-1.132-.421-1.94-1.668-1.334-3.007.604-1.335 1.768-3.06 3.881-3.482V97a1 1 0 0 1 1-1Zm-1.452 8.657.512 2.105a.969.969 0 0 0 1.881 0l.512-2.105h-2.905Zm1.452-4.735c-1.547 0-2.468 1.096-3.059 2.402a.175.175 0 0 0-.018.094.194.194 0 0 0 .041.093.385.385 0 0 0 .312.146h5.449a.322.322 0 0 0 .258-.117.168.168 0 0 0 .032-.067.139.139 0 0 0-.012-.068c-.54-1.339-1.425-2.483-3.003-2.483Z" fill="#CDCCD1"/><path fill-rule="evenodd" clip-rule="evenodd" d="M264 132h.884a8.442 8.442 0 0 1-.499-1.667c-.258-1.38-.175-3.03.829-4.536 1.472-2.209 3.794-2.602 5.327-2.588.002-1.173.379-2.789 2.15-3.851 1.248-.749 2.411-.747 3.344-.458.462.143.864.357 1.176.552 1.453-1.224 4.386-3.056 7.973-2.258 3.57.793 5.585 3.436 6.41 5.383 1.39-.176 2.941.026 4.559.835 2.457 1.228 3.558 3.225 3.926 5.151a9.48 9.48 0 0 1-.009 3.437h.75a1 1 0 0 1 0 2H264a1 1 0 0 1 0-2Zm20.75-12.854c-3.1-.689-5.687 1.251-6.697 2.239-.372.364-.96.425-1.402.112a16.442 16.442 0 0 1-.12-.087c-.303-.217-.643-.463-1.086-.6-.446-.137-1.011-.166-1.725.263-1.329.797-1.255 2.163-1.105 2.879.153.723-.45 1.434-1.236 1.321-1.089-.156-3.291-.182-4.501 1.634-.633.949-.72 2.026-.527 3.058.149.797.459 1.518.754 2.035h6.402l1.161-3.482-1.612-1.415a1 1 0 0 1 1.32-1.502l.978.858.482-1.446a1 1 0 0 1 1.897.632L275.615 132h3.525c-.178-1.439.098-2.626.592-3.582a6.54 6.54 0 0 1 1.51-1.896l-1.315-3.945a1.001 1.001 0 0 1 1.898-.632l.146.438.137-.192a1 1 0 0 1 1.627 1.163l-.982 1.375.224.674a6.07 6.07 0 0 1 1.82-.432c.678-.055 1.354.002 1.917.161a8.284 8.284 0 0 1 2.923-2.035c-.692-1.459-2.252-3.366-4.887-3.951ZM290.935 132h7.093c.193-.822.3-1.94.086-3.062-.27-1.419-1.044-2.832-2.855-3.737-1.533-.767-2.917-.808-4.077-.514-1.489.377-2.652 1.321-3.253 2.106-.402.525-1.075.582-1.545.343-.204-.104-.731-.228-1.426-.172-.669.055-1.373.269-1.948.699-.472.354-1.094.884-1.501 1.673-.327.633-.545 1.492-.349 2.664h7.647l1.868-5.137a1.001 1.001 0 0 1 1.88.684l-.479 1.317.974-.097a1 1 0 0 1 .199 1.99l-1.932.193-.382 1.05ZM223 60a2 2 0 0 0-2-2h-3a2 2 0 0 0-2 2v23a2 2 0 0 0 2 2h3a2 2 0 0 0 2-2V60Zm-2 6.941h-3V83h3V66.941Zm0-2h-3V60h3v4.941ZM223 91a2 2 0 0 0-2-2h-3a2 2 0 0 0-2 2v13a2 2 0 0 0 2 2h3a2 2 0 0 0 2-2V91Zm-2 4h-3v9h3v-9Zm0-2h-3v-2h3v2Zm17-29a2 2 0 0 0-2-2h-3a2 2 0 0 0-2 2v19a2 2 0 0 0 2 2h3a2 2 0 0 0 2-2V64Zm-2 5.765h-3V83h3V69.765Zm0-2h-3V64h3v3.765ZM238 91a2 2 0 0 0-2-2h-3a2 2 0 0 0-2 2v13a2 2 0 0 0 2 2h3a2 2 0 0 0 2-2V91Zm-2 4h-3v9h3v-9Zm0-2h-3v-2h3v2Zm2 20a2 2 0 0 0-2-2h-3a2 2 0 0 0-2 2v13a2 2 0 0 0 2 2h3a2 2 0 0 0 2-2v-13Zm-2 4h-3v9h3v-9Zm0-2h-3v-2h3v2Z" fill="#CDCCD1"/><path d="M218 119a1 1 0 0 1 1 1v7a1 1 0 0 1-2 0v-7a1 1 0 0 1 1-1Z" fill="#CDCCD1"/><path fill-rule="evenodd" clip-rule="evenodd" d="M256 70a2 2 0 0 0-2-2h-3a2 2 0 0 0-2 2v13a2 2 0 0 0 2 2h3a2 2 0 0 0 2-2V70Zm-2 4h-3v9h3v-9Zm0-2h-3v-2h3v2Zm2 19a2 2 0 0 0-2-2h-3a2 2 0 0 0-2 2v13a2 2 0 0 0 2 2h3a2 2 0 0 0 2-2V91Zm-2 4h-3v9h3v-9Zm0-2h-3v-2h3v2Zm0 18a2 2 0 0 1 2 2v13a2 2 0 0 1-2 2h-3a2 2 0 0 1-2-2v-13a2 2 0 0 1 2-2h3Zm-3 6h3v9h-3v-9Zm0-2h3v-2h-3v2Z" fill="#CDCCD1"/><path fill-rule="evenodd" clip-rule="evenodd" d="M265.5 59.609a3.074 3.074 0 0 1-3.5 3.044V130a4 4 0 0 1-4 4h-62a4 4 0 0 1-4-4v-5.518a8.55 8.55 0 0 0 2-1.537V130a2 2 0 0 0 2 2h12.861V49.29L194 45.766v64.374a33.425 33.425 0 0 0-2-3.561V45.254l-.661-.188a3.333 3.333 0 0 1 1.745-6.435l70.107 18a3.074 3.074 0 0 1 2.309 2.978Zm-72.913-19.04a1.334 1.334 0 0 0-.698 2.573l1.364.39 16.852 3.998 33.774 8.502 17.318 4.486 1.077.154a1.074 1.074 0 0 0 .419-2.104l-70.106-18Zm18.274 9.214 31.767 7.996V132H226.5v-14.75a6.25 6.25 0 1 0-12.5 0V132h-3.139V49.783ZM224.5 132v-14.75a4.25 4.25 0 0 0-8.5 0V132h8.5Zm20.128 0H258a2 2 0 0 0 2-2V62.274l-15.372-3.982V132Z" fill="#CDCCD1"/><path fill-rule="evenodd" clip-rule="evenodd" d="M203 53a2 2 0 0 1 2 2v28a2 2 0 0 1-2 2h-3a2 2 0 0 1-2-2V55a2 2 0 0 1 2-2h3Zm-3 10.412h3V83h-3V63.412Zm0-2h3V55h-3v6.412ZM205 91a2 2 0 0 0-2-2h-3a2 2 0 0 0-2 2v13a2 2 0 0 0 2 2h3a2 2 0 0 0 2-2V91Zm-2 4h-3v9h3v-9Zm0-2h-3v-2h3v2Zm2 20a2 2 0 0 0-2-2h-3a2 2 0 0 0-2 2v13a2 2 0 0 0 2 2h3a2 2 0 0 0 2-2v-13Zm-2 4h-3v9h3v-9Zm0-2h-3v-2h3v2Zm-14.926-11.925a1.653 1.653 0 0 1 2.629-.039c2.49 3.155 5.348 7.879 6.104 12.361.381 2.258.243 4.544-.841 6.536-1.031 1.897-2.85 3.4-5.578 4.37v6.888a1 1 0 1 1-2 0v-6.873c-2.634-.886-4.394-2.336-5.391-4.202-1.049-1.962-1.178-4.239-.811-6.499.73-4.496 3.485-9.306 5.888-12.542Zm2.314 21.085v-3.459l1.947-1.731a1 1 0 0 0-1.328-1.495l-.619.55V116.7a1 1 0 0 0-2 0v2.363l-.372-.325a1.001 1.001 0 0 0-1.317 1.506l1.689 1.477v2.466c-1.862-.751-2.986-1.814-3.627-3.014-.771-1.443-.926-3.233-.6-5.236.63-3.878 3.001-8.192 5.251-11.304 2.328 3.032 4.775 7.254 5.423 11.097.335 1.981.177 3.773-.625 5.248-.675 1.239-1.86 2.357-3.822 3.182ZM98 104.586a2 2 0 0 1 2-2h4a2 2 0 0 1 2 2v6.404a2 2 0 0 1-2 2h-4a2 2 0 0 1-2-2v-6.404Zm6 0h-4v2.202h4v-2.202Zm0 4.202h-4v2.202h4v-2.202Zm-6 9.454a2 2 0 0 1 2-2h4a2 2 0 0 1 2 2v6.404a2 2 0 0 1-2 2h-4a2 2 0 0 1-2-2v-6.404Zm6 0h-4v2.202h4v-2.202Zm0 4.202h-4v2.202h4v-2.202Zm24-4.202a2 2 0 0 1 2-2h4a2 2 0 0 1 2 2v6.404a2 2 0 0 1-2 2h-4a2 2 0 0 1-2-2v-6.404Zm6 0h-4v2.202h4v-2.202Zm0 4.202h-4v2.202h4v-2.202Zm-6-17.858a2 2 0 0 1 2-2h4a2 2 0 0 1 2 2v6.404a2 2 0 0 1-2 2h-4a2 2 0 0 1-2-2v-6.404Zm6 0h-4v2.202h4v-2.202Zm0 4.202h-4v2.202h4v-2.202Z" fill="#CDCCD1"/><path d="M113 104.636a1 1 0 0 0-2 0v6.829a1 1 0 0 0 2 0v-6.829Zm5 0a1 1 0 0 0-2 0v6.829a1 1 0 0 0 2 0v-6.829Zm5 0a1 1 0 0 0-2 0v6.829a1 1 0 0 0 2 0v-6.829Z" fill="#CDCCD1"/><path fill-rule="evenodd" clip-rule="evenodd" d="M54 102.586a2 2 0 0 0-2 2v6.404a2 2 0 0 0 2 2h4a2 2 0 0 0 2-2v-6.404a2 2 0 0 0-2-2h-4Zm0 2h4v2.202h-4v-2.202Zm0 4.202h4v2.202h-4v-2.202Zm0 7.454a2 2 0 0 0-2 2v6.404a2 2 0 0 0 2 2h4a2 2 0 0 0 2-2v-6.404a2 2 0 0 0-2-2h-4Zm0 2h4v2.202h-4v-2.202Zm0 4.202h4v2.202h-4v-2.202Zm30-6.202a2 2 0 0 0-2 2v6.404a2 2 0 0 0 2 2h4a2 2 0 0 0 2-2v-6.404a2 2 0 0 0-2-2h-4Zm0 2h4v2.202h-4v-2.202Zm0 4.202h4v2.202h-4v-2.202Zm0-19.858a2 2 0 0 0-2 2v6.404a2 2 0 0 0 2 2h4a2 2 0 0 0 2-2v-6.404a2 2 0 0 0-2-2h-4Zm0 2h4v2.202h-4v-2.202Zm0 4.202h4v2.202h-4v-2.202Z" fill="#CDCCD1"/><path d="M67 104.636a1 1 0 0 0-2 0v6.829a1 1 0 0 0 2 0v-6.829Zm5 0a1 1 0 0 0-2 0v6.829a1 1 0 0 0 2 0v-6.829Zm5 0a1 1 0 0 0-2 0v6.829a1 1 0 0 0 2 0v-6.829Z" fill="#CDCCD1"/><path fill-rule="evenodd" clip-rule="evenodd" d="M71 80a2 2 0 0 0-2 2v4.303H58.286a4 4 0 0 0-2.897 1.242l-8.113 8.523a1 1 0 0 0-.276.69V130a4 4 0 0 0 4 4h132.5a4 4 0 0 0 4-4v-5.107a8.78 8.78 0 0 1-2-1.256V130a2 2 0 0 1-2 2h-12.501l.001-.05v-11.657a3 3 0 1 0-6 0v11.683l.001.024h-4.002l.001-.025v-11.682a3 3 0 1 0-6 0v11.657l.001.05H141V97.757h44.5v11.36a37.497 37.497 0 0 1 2-3.462v-8.898a1 1 0 0 0-.276-.689l-8.113-8.523a4 4 0 0 0-2.897-1.242H165.5V82a2 2 0 0 0-2-2H162a2 2 0 0 0-2 2v4.303h-40.5V82a2 2 0 0 0-2-2H116a2 2 0 0 0-2 2v4.303H74.5V82a2 2 0 0 0-2-2H71Zm89.99 8.303h15.224c.547 0 1.071.224 1.448.621l6.505 6.833H141v-7.454h19.99Zm2.51-2H162V82h1.5v4.303Zm-45 2H95v7.455h44v-7.455h-20.5Zm-1-6.303v4.303H116V82h1.5Zm-44.01 6.303H93v7.455H50.333l6.505-6.834a2 2 0 0 1 1.448-.621H73.49Zm-.99-2V82H71v4.303h1.5ZM169.001 132l-.001-.05v-8.98h-2v8.98l-.001.05h2.002ZM159 131.95l.001.05h-2.002l.001-.05v-8.98h2v8.98Zm-20-34.193V132h-14.001l.001-.05v-11.657a3 3 0 1 0-6 0v11.657l.001.05h-4.002l.001-.05v-11.657a3 3 0 1 0-6 0v11.657l.001.05H95V97.757h44ZM123.001 132l-.001-.05v-8.98h-2v9.002l-.001.014V132h2.002ZM113 131.95l.001.05h-2.002l.001-.05v-8.98h2v8.98ZM93 97.758V132H78.999l.001-.05v-11.657a3 3 0 1 0-6 0v11.657l.001.05H69l.001-.05v-11.657a3 3 0 1 0-6 0v11.657l.001.05H51a2 2 0 0 1-2-2V97.757h44ZM77.001 132a1.075 1.075 0 0 1-.001-.05v-8.98h-2v8.98l-.001.05H77ZM67 131.95l.001.05H65l.001-.05v-8.98h2v8.98Zm0-10.98v-.677a1 1 0 0 0-2 0v.677h2Zm10-.677v.677h-2v-.677a1 1 0 0 1 2 0Zm36 .677v-.677a1 1 0 0 0-2 0v.677h2Zm10-.677v.677h-2v-.677a1 1 0 0 1 2 0Zm36 .677v-.677a1 1 0 0 0-2 0v.677h2Zm10-.677v.677h-2v-.677a1 1 0 0 1 2 0Z" fill="#CDCCD1"/><path fill-rule="evenodd" clip-rule="evenodd" d="M144 104.586a2 2 0 0 1 2-2h4a2 2 0 0 1 2 2v6.404a2 2 0 0 1-2 2h-4a2 2 0 0 1-2-2v-6.404Zm6 0h-4v2.202h4v-2.202Zm0 4.202h-4v2.202h4v-2.202Zm-4 7.454a2 2 0 0 0-2 2v6.404a2 2 0 0 0 2 2h4a2 2 0 0 0 2-2v-6.404a2 2 0 0 0-2-2h-4Zm0 2h4v2.202h-4v-2.202Zm0 4.202h4v2.202h-4v-2.202Zm30-6.202a2 2 0 0 0-2 2v6.404a2 2 0 0 0 2 2h4a2 2 0 0 0 2-2v-6.404a2 2 0 0 0-2-2h-4Zm0 2h4v2.202h-4v-2.202Zm0 4.202h4v2.202h-4v-2.202Zm0-19.858a2 2 0 0 0-2 2v6.404a2 2 0 0 0 2 2h4a2 2 0 0 0 2-2v-6.404a2 2 0 0 0-2-2h-4Zm0 2h4v2.202h-4v-2.202Zm0 4.202h4v2.202h-4v-2.202Z" fill="#CDCCD1"/><path d="M159 104.636a1 1 0 0 0-2 0v6.829a1 1 0 0 0 2 0v-6.829Zm5 0a1 1 0 0 0-2 0v6.829a1 1 0 0 0 2 0v-6.829Zm5 0a1 1 0 0 0-2 0v6.829a1 1 0 0 0 2 0v-6.829Z" fill="#CDCCD1"/><path fill-rule="evenodd" clip-rule="evenodd" d="M41.008 1a1 1 0 1 0-2 0v4H35a3 3 0 0 0-3 3v1.17A3.001 3.001 0 0 0 30 12v2H20a1 1 0 1 0 0 2h2v102.177a7.91 7.91 0 0 1 2 .745V16h32v71.452a1 1 0 1 0 2 0V16h2a1 1 0 1 0 0-2H50v-2a3.001 3.001 0 0 0-2-2.83V8a3 3 0 0 0-3-3h-3.992V1ZM32 12a1 1 0 0 1 1-1h14a1 1 0 0 1 1 1v2H32v-2Zm14-4v1H34V8a1 1 0 0 1 1-1h10a1 1 0 0 1 1 1Z" fill="#CDCCD1"/><path d="M33 124.461c.866.482 1.517 1.075 2 1.727V123.5a3.5 3.5 0 1 1 7 0v8.5h-5.948v2H51.43a1 1 0 0 0 0-2H44v-8.5a5.5 5.5 0 1 0-11 0v.961Z" fill="#CDCCD1"/><path fill-rule="evenodd" clip-rule="evenodd" d="M30 43a4 4 0 0 0-4 4v4a2 2 0 0 0 2 2h4a2 2 0 0 0 2-2v-4a4 4 0 0 0-4-4Zm-2 4a2 2 0 1 1 4 0v4h-4v-4Zm12-4a4 4 0 0 0-4 4v4a2 2 0 0 0 2 2h4a2 2 0 0 0 2-2v-4a4 4 0 0 0-4-4Zm-2 4a2 2 0 1 1 4 0v4h-4v-4Zm12-4a4 4 0 0 0-4 4v4a2 2 0 0 0 2 2h4a2 2 0 0 0 2-2v-4a4 4 0 0 0-4-4Zm-2 4a2 2 0 1 1 4 0v4h-4v-4ZM30 20a4 4 0 0 0-4 4v13a2 2 0 0 0 2 2h4a2 2 0 0 0 2-2V24a4 4 0 0 0-4-4Zm-2 4a2 2 0 1 1 4 0v13h-4V24Zm22-4a4 4 0 0 0-4 4v13a2 2 0 0 0 2 2h4a2 2 0 0 0 2-2V24a4 4 0 0 0-4-4Zm-2 4a2 2 0 1 1 4 0v13h-4V24ZM30 58a4 4 0 0 0-4 4v4a2 2 0 0 0 2 2h4a2 2 0 0 0 2-2v-4a4 4 0 0 0-4-4Zm-2 4a2 2 0 1 1 4 0v4h-4v-4Zm12-4a4 4 0 0 0-4 4v4a2 2 0 0 0 2 2h4a2 2 0 0 0 2-2v-4a4 4 0 0 0-4-4Zm-2 4a2 2 0 1 1 4 0v4h-4v-4Zm12-4a4 4 0 0 0-4 4v4a2 2 0 0 0 2 2h4a2 2 0 0 0 2-2v-4a4 4 0 0 0-4-4Zm-2 4a2 2 0 1 1 4 0v4h-4v-4ZM30 73a4 4 0 0 0-4 4v4a2 2 0 0 0 2 2h4a2 2 0 0 0 2-2v-4a4 4 0 0 0-4-4Zm-2 4a2 2 0 1 1 4 0v4h-4v-4Zm12-4a4 4 0 0 0-4 4v4a2 2 0 0 0 2 2h4a2 2 0 0 0 2-2v-4a4 4 0 0 0-4-4Zm-2 4a2 2 0 1 1 4 0v4h-4v-4Zm-8 11a4 4 0 0 0-4 4v4a2 2 0 0 0 2 2h4a2 2 0 0 0 2-2v-4a4 4 0 0 0-4-4Zm-2 4a2 2 0 1 1 4 0v4h-4v-4Zm12-4a4 4 0 0 0-4 4v4a2 2 0 0 0 2 2h4a2 2 0 0 0 2-2v-4a4 4 0 0 0-4-4Zm-2 4a2 2 0 1 1 4 0v4h-4v-4Zm-8 11a4 4 0 0 0-4 4v4a2 2 0 0 0 2 2h4a2 2 0 0 0 2-2v-4a4 4 0 0 0-4-4Zm-2 4a2 2 0 1 1 4 0v4h-4v-4Zm12-4a4 4 0 0 0-4 4v4a2 2 0 0 0 2 2h4a2 2 0 0 0 2-2v-4a4 4 0 0 0-4-4Zm-2 4a2 2 0 1 1 4 0v4h-4v-4Zm8-30a4 4 0 0 1 8 0v4a2 2 0 0 1-2 2h-4a2 2 0 0 1-2-2v-4Zm4-2a2 2 0 0 0-2 2v4h4v-4a2 2 0 0 0-2-2Z" fill="#CDCCD1"/><path d="M38 21a1 1 0 0 1 1 1v16a1 1 0 1 1-2 0V22a1 1 0 0 1 1-1Zm4 0a1 1 0 0 1 1 1v16a1 1 0 1 1-2 0V22a1 1 0 0 1 1-1Z" fill="#CDCCD1"/><path fill-rule="evenodd" clip-rule="evenodd" d="M10.088 96a1 1 0 0 1 1 1v1.019c2.183.437 3.309 2.275 3.858 3.639.516 1.279-.245 2.438-1.31 2.845l-.664 2.731a2.966 2.966 0 0 1-1.883 2.093V120l-2 1v-11.673a2.966 2.966 0 0 1-1.884-2.093l-.664-2.727c-1.132-.421-1.94-1.668-1.334-3.007.604-1.335 1.768-3.06 3.881-3.482V97a1 1 0 0 1 1-1Zm-1.452 8.657.512 2.105a.968.968 0 0 0 1.88 0l.513-2.105H8.636Zm1.453-4.735c-1.548 0-2.469 1.096-3.06 2.402a.168.168 0 0 0-.018.094.2.2 0 0 0 .04.093.387.387 0 0 0 .313.146h5.449a.32.32 0 0 0 .258-.117.15.15 0 0 0 .032-.067.124.124 0 0 0-.012-.068c-.54-1.339-1.425-2.483-3.002-2.483Z" fill="#CDCCD1"/><path fill-rule="evenodd" clip-rule="evenodd" d="M1 132h.884a8.482 8.482 0 0 1-.499-1.667c-.258-1.38-.175-3.03.829-4.536 1.472-2.209 3.794-2.602 5.327-2.588.002-1.173.379-2.789 2.15-3.851 1.248-.749 2.41-.747 3.344-.458.462.143.864.357 1.176.552 1.453-1.224 4.386-3.056 7.973-2.258 3.57.793 5.585 3.436 6.41 5.383 1.39-.176 2.94.026 4.56.835 2.456 1.228 3.557 3.225 3.925 5.151.235 1.236.173 2.447-.009 3.437h.75a1 1 0 0 1 0 2H1a1 1 0 0 1 0-2Zm20.75-12.854c-3.1-.689-5.688 1.251-6.697 2.239-.372.364-.96.425-1.402.112a8.01 8.01 0 0 1-.12-.087c-.303-.217-.643-.463-1.086-.6-.446-.137-1.011-.166-1.726.263-1.328.797-1.254 2.163-1.104 2.879.153.723-.45 1.434-1.236 1.321-1.09-.156-3.29-.182-4.501 1.634-.633.949-.72 2.026-.527 3.058.15.797.459 1.518.754 2.035h6.402l1.16-3.482-1.61-1.415a1 1 0 1 1 1.32-1.502l.977.858.482-1.446a1 1 0 0 1 1.897.632L12.615 132h3.525c-.178-1.439.098-2.626.592-3.582a6.533 6.533 0 0 1 1.51-1.896l-1.315-3.945a1 1 0 1 1 1.898-.632l.146.438.137-.192a1 1 0 0 1 1.627 1.163l-.982 1.375.224.674a6.066 6.066 0 0 1 1.82-.432c.678-.055 1.354.002 1.917.161a8.286 8.286 0 0 1 2.923-2.035c-.692-1.459-2.252-3.366-4.887-3.951ZM27.935 132h7.093c.193-.822.3-1.94.086-3.062-.27-1.419-1.044-2.832-2.855-3.737-1.533-.767-2.917-.808-4.077-.514-1.489.377-2.652 1.321-3.253 2.106-.402.525-1.075.582-1.545.343-.204-.104-.731-.228-1.426-.172-.669.055-1.373.269-1.948.699-.472.354-1.094.884-1.501 1.673-.327.633-.545 1.492-.349 2.664h7.647l1.868-5.137a1 1 0 0 1 1.88.684l-.48 1.317.975-.097a1 1 0 0 1 .199 1.99l-1.932.193-.382 1.05Z" fill="#CDCCD1"/></svg>